<svg width="240" height="169" viewBox="0 0 240 169" fill="none" xmlns="http://www.w3.org/2000/svg">
<path d="M215.587 78.8748C216.542 77.221 217.94 75.8709 219.781 74.8246C221.623 73.7782 223.72 73.2551 226.073 73.2551C228.596 73.2551 230.864 73.8458 232.876 75.0271C234.888 76.2084 236.474 77.8791 237.633 80.0392C238.793 82.1656 239.372 84.6464 239.372 87.4816C239.372 90.283 238.793 92.7806 237.633 94.9745C236.474 97.1684 234.871 98.8729 232.825 100.088C230.813 101.303 228.562 101.911 226.073 101.911C223.652 101.911 221.52 101.387 219.679 100.341C217.872 99.2948 216.507 97.9616 215.587 96.3415V101.455H210.932V63.9902H215.587V78.8748ZM234.615 87.4816C234.615 85.3889 234.189 83.5663 233.336 82.0137C232.484 80.4611 231.324 79.2798 229.858 78.4698C228.426 77.6597 226.84 77.2547 225.101 77.2547C223.396 77.2547 221.81 77.6766 220.344 78.5204C218.912 79.3305 217.752 80.5286 216.866 82.115C216.013 83.6676 215.587 85.4733 215.587 87.5322C215.587 89.6248 216.013 91.4643 216.866 93.0506C217.752 94.6032 218.912 95.8014 220.344 96.6452C221.81 97.4553 223.396 97.8603 225.101 97.8603C226.84 97.8603 228.426 97.4553 229.858 96.6452C231.324 95.8014 232.484 94.6032 233.336 93.0506C234.189 91.4643 234.615 89.6079 234.615 87.4816Z" fill="black"/>
<path d="M175.382 87.5906C175.382 84.7768 175.961 82.3146 177.121 80.2042C178.28 78.0603 179.866 76.4021 181.878 75.2297C183.924 74.0572 186.192 73.471 188.681 73.471C191.136 73.471 193.268 73.9902 195.075 75.0287C196.882 76.0671 198.229 77.3736 199.116 78.948V73.9232H203.822V101.459H199.116V96.3338C198.195 97.9417 196.814 99.2816 194.973 100.354C193.165 101.392 191.051 101.911 188.63 101.911C186.14 101.911 183.89 101.308 181.878 100.102C179.866 98.8964 178.28 97.2047 177.121 95.0273C175.961 92.8499 175.382 90.371 175.382 87.5906ZM199.116 87.6409C199.116 85.564 198.69 83.7551 197.837 82.2141C196.985 80.6732 195.825 79.5007 194.359 78.6968C192.927 77.8593 191.341 77.4406 189.602 77.4406C187.863 77.4406 186.277 77.8426 184.845 78.6465C183.412 79.4505 182.27 80.623 181.417 82.1639C180.565 83.7048 180.139 85.5137 180.139 87.5906C180.139 89.7011 180.565 91.5435 181.417 93.1179C182.27 94.6588 183.412 95.848 184.845 96.6855C186.277 97.4895 187.863 97.8915 189.602 97.8915C191.341 97.8915 192.927 97.4895 194.359 96.6855C195.825 95.848 196.985 94.6588 197.837 93.1179C198.69 91.5435 199.116 89.7178 199.116 87.6409Z" fill="black"/>
<path d="M159.202 98.1363H173.012V101.911H154.051V66.3604H159.202V98.1363Z" fill="black"/>
<path d="M119.95 73.471C122.372 73.471 124.486 73.9744 126.293 74.9813C128.135 75.9881 129.499 77.2548 130.385 78.7813V73.9095H135.091V101.192C135.091 103.628 134.546 105.788 133.454 107.672C132.363 109.588 130.795 111.082 128.749 112.154C126.737 113.225 124.384 113.761 121.69 113.761C118.007 113.761 114.938 112.933 112.482 111.277C110.027 109.62 108.578 107.363 108.134 104.505H112.738C113.25 106.129 114.307 107.428 115.91 108.402C117.512 109.409 119.439 109.913 121.69 109.913C124.247 109.913 126.327 109.149 127.93 107.623C129.567 106.096 130.385 103.953 130.385 101.192V95.5893C129.465 97.1483 128.101 98.4475 126.293 99.4868C124.486 100.526 122.372 101.046 119.95 101.046C117.461 101.046 115.193 100.461 113.147 99.2919C111.135 98.1227 109.55 96.4825 108.39 94.3713C107.231 92.2602 106.651 89.8567 106.651 87.161C106.651 84.4327 107.231 82.0455 108.39 79.9993C109.55 77.9207 111.135 76.3129 113.147 75.1762C115.193 74.0394 117.461 73.471 119.95 73.471ZM130.385 87.2097C130.385 85.196 129.959 83.4421 129.107 81.9481C128.254 80.454 127.095 79.3173 125.628 78.5378C124.196 77.7258 122.61 77.3198 120.871 77.3198C119.132 77.3198 117.546 77.7095 116.114 78.489C114.682 79.2685 113.539 80.4053 112.687 81.8993C111.834 83.3934 111.408 85.1473 111.408 87.161C111.408 89.2072 111.834 90.9935 112.687 92.52C113.539 94.0141 114.682 95.1671 116.114 95.9791C117.546 96.7586 119.132 97.1483 120.871 97.1483C122.61 97.1483 124.196 96.7586 125.628 95.9791C127.095 95.1671 128.254 94.0141 129.107 92.52C129.959 90.9935 130.385 89.2234 130.385 87.2097Z" fill="black"/>
<path d="M88.7285 73.471C91.9465 73.471 94.553 74.5074 96.5481 76.5801C98.5433 78.6188 99.5408 81.575 99.5408 85.4485V101.911H95.1966V86.1111C95.1966 83.3249 94.5369 81.2012 93.2175 79.7401C91.8982 78.245 90.0961 77.4975 87.8114 77.4975C85.4944 77.4975 83.6441 78.262 82.2604 79.7911C80.9089 81.3201 80.2331 83.5457 80.2331 86.4679V101.911H75.8406V73.9807H80.2331V77.9562C81.102 76.5291 82.2765 75.4248 83.7568 74.6433C85.2692 73.8618 86.9264 73.471 88.7285 73.471Z" fill="black"/>
<path d="M65.2338 68.1859C64.2236 68.1859 63.3688 67.8682 62.6695 67.2329C61.9701 66.5976 61.6204 65.8211 61.6204 64.9034C61.6204 63.9857 61.9701 63.2092 62.6695 62.5738C63.3688 61.9385 64.2236 61.6208 65.2338 61.6208C66.2051 61.6208 67.021 61.9385 67.6815 62.5738C68.3808 63.2092 68.7305 63.9857 68.7305 64.9034C68.7305 65.8211 68.3808 66.5976 67.6815 67.2329C67.021 67.8682 66.2051 68.1859 65.2338 68.1859ZM67.7981 72.8979V101.911H62.4947V72.8979H67.7981Z" fill="black"/>
<path d="M45.0837 97.5518L54.104 73.471H59.2508L47.8429 101.911H42.2185L30.8105 73.471H36.0104L45.0837 97.5518Z" fill="black"/>
<path d="M24.9435 68.1859C23.9334 68.1859 23.0786 67.8682 22.3792 67.2329C21.6799 66.5976 21.3302 65.8211 21.3302 64.9034C21.3302 63.9857 21.6799 63.2092 22.3792 62.5738C23.0786 61.9385 23.9334 61.6208 24.9435 61.6208C25.9149 61.6208 26.7308 61.9385 27.3912 62.5738C28.0906 63.2092 28.4403 63.9857 28.4403 64.9034C28.4403 65.8211 28.0906 66.5976 27.3912 67.2329C26.7308 67.8682 25.9149 68.1859 24.9435 68.1859ZM27.5078 72.8979V101.911H22.2044V72.8979H27.5078Z" fill="black"/>
<path d="M4.50658 98.1363H16.5902V101.911H0V66.3604H4.50658V98.1363Z" fill="black"/>
<path d="M227.479 9.48004C231.019 9.48004 233.886 10.5164 236.08 12.5891C238.275 14.6278 239.372 17.584 239.372 21.4576V37.9203H234.594V22.1202C234.594 19.3339 233.868 17.2102 232.417 15.7491C230.966 14.2541 228.983 13.5065 226.47 13.5065C223.921 13.5065 221.886 14.2711 220.364 15.8001C218.877 17.3291 218.134 19.5548 218.134 22.4769V37.9203H213.302V9.98972H218.134V13.9652C219.09 12.5381 220.382 11.4338 222.01 10.6523C223.674 9.8708 225.497 9.48004 227.479 9.48004Z" fill="black"/>
<path d="M177.752 23.5997C177.752 20.7858 178.332 18.3237 179.491 16.2133C180.65 14.0693 182.236 12.4112 184.248 11.2387C186.294 10.0663 188.562 9.48004 191.051 9.48004C193.507 9.48004 195.638 9.99927 197.445 11.0377C199.253 12.0762 200.6 13.3826 201.486 14.9571V9.93227H206.192V37.4681H201.486V32.3428C200.565 33.9507 199.184 35.2907 197.343 36.3626C195.536 37.4011 193.421 37.9203 191 37.9203C188.511 37.9203 186.26 37.3173 184.248 36.1114C182.236 34.9054 180.65 33.2138 179.491 31.0364C178.332 28.859 177.752 26.3801 177.752 23.5997ZM201.486 23.6499C201.486 21.573 201.06 19.7641 200.207 18.2232C199.355 16.6822 198.195 15.5098 196.729 14.7058C195.297 13.8684 193.711 13.4496 191.972 13.4496C190.233 13.4496 188.647 13.8516 187.215 14.6556C185.783 15.4595 184.64 16.632 183.788 18.1729C182.935 19.7139 182.509 21.5228 182.509 23.5997C182.509 25.7101 182.935 27.5525 183.788 29.1269C184.64 30.6679 185.783 31.8571 187.215 32.6945C188.647 33.4985 190.233 33.9005 191.972 33.9005C193.711 33.9005 195.297 33.4985 196.729 32.6945C198.195 31.8571 199.355 30.6679 200.207 29.1269C201.06 27.5525 201.486 25.7268 201.486 23.6499Z" fill="black"/>
<path d="M151.208 14.8847C152.083 13.2308 153.365 11.8808 155.053 10.8344C156.741 9.78814 158.664 9.26498 160.82 9.26498C163.134 9.26498 165.212 9.85564 167.057 11.037C168.901 12.2183 170.355 13.889 171.417 16.0491C172.48 18.1755 173.012 20.6563 173.012 23.4914C173.012 26.2929 172.48 28.7905 171.417 30.9844C170.355 33.1783 168.885 34.8827 167.01 36.0978C165.165 37.3129 163.102 37.9204 160.82 37.9204C158.601 37.9204 156.647 37.3973 154.959 36.351C153.303 35.3046 152.052 33.9714 151.208 32.3513V37.4648H146.941V6.10352e-05H151.208V14.8847ZM168.651 23.4914C168.651 21.3988 168.26 19.5762 167.479 18.0236C166.697 16.471 165.634 15.2897 164.29 14.4797C162.977 13.6696 161.524 13.2646 159.93 13.2646C158.367 13.2646 156.913 13.6865 155.569 14.5303C154.256 15.3403 153.193 16.5385 152.38 18.1249C151.599 19.6775 151.208 21.4832 151.208 23.5421C151.208 25.6347 151.599 27.4742 152.38 29.0605C153.193 30.6131 154.256 31.8113 155.569 32.6551C156.913 33.4652 158.367 33.8702 159.93 33.8702C161.524 33.8702 162.977 33.4652 164.29 32.6551C165.634 31.8113 166.697 30.6131 167.479 29.0605C168.26 27.4742 168.651 25.6178 168.651 23.4914Z" fill="black"/>
<path d="M132.005 14.5259C132.713 12.9289 133.715 11.6887 135.012 10.8052C136.338 9.92177 137.945 9.48004 139.831 9.48004V14.2711H138.77C134.26 14.2711 132.005 17.0913 132.005 22.7318V37.9203H127.981V9.98972H132.005V14.5259Z" fill="black"/>
<path d="M96.9498 2.37036V24.6398C96.9498 27.7707 97.6947 30.0936 99.1844 31.6085C100.707 33.1234 102.809 33.8809 105.491 33.8809C108.139 33.8809 110.208 33.1234 111.698 31.6085C113.221 30.0936 113.982 27.7707 113.982 24.6398V2.37036H118.501V24.5893C118.501 27.5182 117.922 29.9926 116.763 32.0125C115.605 33.9987 114.032 35.48 112.046 36.4563C110.093 37.4326 107.891 37.9207 105.441 37.9207C102.991 37.9207 100.773 37.4326 98.7871 36.4563C96.8339 35.48 95.278 33.9987 94.1193 32.0125C92.9937 29.9926 92.431 27.5182 92.431 24.5893V2.37036H96.9498Z" fill="black"/>
<path d="M116.131 153.952C116.131 151.167 116.719 148.698 117.894 146.543C119.104 144.389 120.724 142.731 122.753 141.571C124.817 140.411 127.113 139.831 129.641 139.831C131.848 139.831 133.77 140.245 135.408 141.074C137.081 141.903 138.416 142.947 139.413 144.206V140.279H146.942V167.824H139.413V163.796C138.452 165.089 137.117 166.166 135.408 167.028C133.735 167.857 131.795 168.271 129.588 168.271C127.096 168.271 124.817 167.675 122.753 166.481C120.724 165.288 119.104 163.614 117.894 161.46C116.719 159.272 116.131 156.769 116.131 153.952ZM139.413 154.051C139.413 152.361 139.057 150.919 138.345 149.725C137.633 148.499 136.672 147.571 135.461 146.941C134.251 146.278 132.952 145.947 131.563 145.947C130.175 145.947 128.893 146.262 127.719 146.891C126.544 147.521 125.583 148.449 124.835 149.676C124.123 150.869 123.767 152.294 123.767 153.952C123.767 155.609 124.123 157.068 124.835 158.327C125.583 159.554 126.544 160.498 127.719 161.161C128.929 161.824 130.211 162.156 131.563 162.156C132.952 162.156 134.251 161.841 135.461 161.211C136.672 160.548 137.633 159.62 138.345 158.427C139.057 157.2 139.413 155.742 139.413 154.051Z" fill="black"/>
<path d="M82.9507 153.691C82.9507 150.856 83.4929 148.341 84.5772 146.147C85.6945 143.953 87.206 142.266 89.1119 141.084C91.0178 139.903 93.1373 139.312 95.4703 139.312C97.2447 139.312 98.937 139.717 100.547 140.527C102.157 141.304 103.439 142.35 104.392 143.666V130.351H111.391V167.816H104.392V163.664C103.537 165.048 102.338 166.162 100.794 167.006C99.2492 167.85 97.4583 168.272 95.421 168.272C93.1208 168.272 91.0178 167.664 89.1119 166.449C87.206 165.234 85.6945 163.529 84.5772 161.336C83.4929 159.108 82.9507 156.56 82.9507 153.691ZM104.441 153.792C104.441 152.071 104.112 150.602 103.455 149.387C102.798 148.138 101.911 147.193 100.794 146.552C99.6764 145.877 98.477 145.54 97.1955 145.54C95.9139 145.54 94.731 145.86 93.6466 146.502C92.5622 147.143 91.675 148.088 90.9849 149.337C90.3277 150.552 89.9991 152.003 89.9991 153.691C89.9991 155.378 90.3277 156.863 90.9849 158.146C91.675 159.395 92.5622 160.357 93.6466 161.032C94.7638 161.707 95.9468 162.044 97.1955 162.044C98.477 162.044 99.6764 161.724 100.794 161.082C101.911 160.407 102.798 159.462 103.455 158.247C104.112 156.998 104.441 155.513 104.441 153.792Z" fill="black"/>
<path d="M78.211 153.455C78.211 154.449 78.1479 155.344 78.0217 156.139H58.8594C59.0171 158.128 59.6795 159.686 60.8466 160.813C62.0137 161.94 63.4489 162.504 65.1522 162.504C67.6125 162.504 69.3632 161.393 70.4041 159.172H77.5486C76.7915 161.824 75.3406 164.012 73.1956 165.736C71.0507 167.426 68.4169 168.271 65.2941 168.271C62.7707 168.271 60.4996 167.691 58.4809 166.531C56.4937 165.338 54.9323 163.664 53.7967 161.509C52.6927 159.355 52.1407 156.869 52.1407 154.051C52.1407 151.201 52.6927 148.698 53.7967 146.543C54.9007 144.389 56.4463 142.731 58.4335 141.571C60.4208 140.411 62.7076 139.831 65.2941 139.831C67.786 139.831 70.0098 140.395 71.9655 141.522C73.9527 142.649 75.4825 144.256 76.555 146.344C77.659 148.4 78.211 150.77 78.211 153.455ZM71.3504 151.466C71.3188 149.676 70.7038 148.25 69.5051 147.19C68.3065 146.096 66.8397 145.549 65.1049 145.549C63.4647 145.549 62.0768 146.079 60.9412 147.14C59.8372 148.168 59.159 149.609 58.9067 151.466H71.3504Z" fill="black"/>
<path d="M39.6022 144.588C40.4278 143.104 41.4982 141.94 42.8132 141.096C44.1587 140.253 45.6878 139.831 47.4003 139.831V147.27H45.7031C43.6847 147.27 42.1557 147.793 41.1159 148.839C40.1067 149.885 39.6022 151.706 39.6022 154.304V168.271H33.1802V140.236H39.6022V144.588Z" fill="black"/>
<path d="M19.4422 150.038C21.3733 150.412 22.9608 151.413 24.2046 153.043C25.4484 154.673 26.0702 156.54 26.0702 158.646C26.0702 160.547 25.612 162.228 24.6955 163.688C23.8118 165.114 22.5189 166.234 20.8169 167.049C19.1149 167.864 17.102 168.272 14.7781 168.272H0V132.721H14.1398C16.4637 132.721 18.4603 133.112 20.1296 133.893C21.8316 134.674 23.1081 135.76 23.9591 137.152C24.8428 138.545 25.2847 140.124 25.2847 141.889C25.2847 143.96 24.7446 145.692 23.6645 147.084C22.6171 148.476 21.2097 149.461 19.4422 150.038ZM6.87351 147.39H13.1579C14.7944 147.39 16.0546 147.016 16.9383 146.269C17.822 145.488 18.2639 144.385 18.2639 142.959C18.2639 141.533 17.822 140.429 16.9383 139.648C16.0546 138.867 14.7944 138.477 13.1579 138.477H6.87351V147.39ZM13.7961 162.466C15.4654 162.466 16.7583 162.058 17.6747 161.243C18.6239 160.428 19.0985 159.274 19.0985 157.78C19.0985 156.252 18.6076 155.063 17.6256 154.215C16.6437 153.332 15.3181 152.89 13.6488 152.89H6.87351V162.466H13.7961Z" fill="black"/>
<path d="M0 1.31873H73.5484V40.0284H0V1.31873Z" fill="#2C9DD8"/>
<path d="M166.452 126.423H240V169.004H166.452V126.423Z" fill="#E42F38"/>
</svg>
